<svg width="96" height="96" xmlns="http://www.w3.org/2000/svg" viewBox="0 0 96 96">
    <circle cx="48" cy="48" r="48" fill="#FEFCFC"></circle>
    <path d="M47.8966 89.2939C70.4831 89.2939 88.7931 70.8717 88.7931 48.1469C88.7931 25.4221 70.4831 7 47.8966 7C25.31 7 7 25.4221 7 48.1469C7 70.8717 25.31 89.2939 47.8966 89.2939Z" fill="#D7FE3C"></path>
    <path d="M64.3062 45.3261C63.4952 44.2296 62.2871 43.6771 61.079 43.6771H56.213C53.5941 43.6771 51.4737 41.5437 51.4737 38.9088V33.894H51.4653C51.4315 32.6955 50.8824 31.5141 49.7841 30.7321C48.4071 29.7462 46.4894 29.7547 45.1293 30.7661C44.0395 31.5821 43.4904 32.7975 43.4904 34.013V38.9088C43.4904 41.5437 41.3699 43.6771 38.7511 43.6771H33.8851C32.677 43.6771 31.4689 44.2296 30.6579 45.3261C29.6526 46.6945 29.6442 48.6239 30.6241 50.0094C31.4098 51.1143 32.5841 51.6668 33.7668 51.7008L38.7511 51.7093C41.3699 51.7093 43.4904 53.8427 43.4904 56.4776V61.3734C43.4904 62.5889 44.0395 63.8044 45.1293 64.6203C46.4894 65.6318 48.4071 65.6403 49.7841 64.6543C50.8824 63.8639 51.4315 62.6824 51.4653 61.4924H51.4737V56.4776C51.4737 53.8427 53.5941 51.7093 56.213 51.7093H61.1973C62.3885 51.6668 63.5627 51.1143 64.3399 50.0094C65.3199 48.6239 65.303 46.6945 64.3062 45.3261Z" fill="#0B0B13"></path>
    <path d="M34.3037 37.1487C35.7734 37.1487 36.9648 35.95 36.9648 34.4713C36.9648 32.9927 35.7734 31.7939 34.3037 31.7939C32.834 31.7939 31.6426 32.9927 31.6426 34.4713C31.6426 35.95 32.834 37.1487 34.3037 37.1487Z" fill="#0B0B13"></path>
    <path d="M23.5234 50.8245C24.9931 50.8245 26.1845 49.6258 26.1845 48.1471C26.1845 46.6684 24.9931 45.4697 23.5234 45.4697C22.0537 45.4697 20.8623 46.6684 20.8623 48.1471C20.8623 49.6258 22.0537 50.8245 23.5234 50.8245Z" fill="#0B0B13"></path>
    <path d="M14.9665 49.9322C15.9462 49.9322 16.7405 49.133 16.7405 48.1472C16.7405 47.1614 15.9462 46.3623 14.9665 46.3623C13.9867 46.3623 13.1924 47.1614 13.1924 48.1472C13.1924 49.133 13.9867 49.9322 14.9665 49.9322Z" fill="#0B0B13"></path>
    <path d="M80.8258 49.9322C81.8056 49.9322 82.5999 49.133 82.5999 48.1472C82.5999 47.1614 81.8056 46.3623 80.8258 46.3623C79.846 46.3623 79.0518 47.1614 79.0518 48.1472C79.0518 49.133 79.846 49.9322 80.8258 49.9322Z" fill="#0B0B13"></path>
    <path d="M23.5241 74.4536C24.5039 74.4536 25.2981 73.6545 25.2981 72.6687C25.2981 71.6829 24.5039 70.8838 23.5241 70.8838C22.5443 70.8838 21.75 71.6829 21.75 72.6687C21.75 73.6545 22.5443 74.4536 23.5241 74.4536Z" fill="#0B0B13"></path>
    <path d="M23.5241 25.4107C24.5039 25.4107 25.2981 24.6115 25.2981 23.6258C25.2981 22.64 24.5039 21.8408 23.5241 21.8408C22.5443 21.8408 21.75 22.64 21.75 23.6258C21.75 24.6115 22.5443 25.4107 23.5241 25.4107Z" fill="#0B0B13"></path>
    <path d="M47.8961 83.064C48.8759 83.064 49.6702 82.2649 49.6702 81.2791C49.6702 80.2933 48.8759 79.4941 47.8961 79.4941C46.9163 79.4941 46.1221 80.2933 46.1221 81.2791C46.1221 82.2649 46.9163 83.064 47.8961 83.064Z" fill="#0B0B13"></path>
    <path d="M47.8961 16.8003C48.8759 16.8003 49.6702 16.0012 49.6702 15.0154C49.6702 14.0296 48.8759 13.2305 47.8961 13.2305C46.9163 13.2305 46.1221 14.0296 46.1221 15.0154C46.1221 16.0012 46.9163 16.8003 47.8961 16.8003Z" fill="#0B0B13"></path>
    <path d="M72.2687 74.4536C73.2485 74.4536 74.0428 73.6545 74.0428 72.6687C74.0428 71.6829 73.2485 70.8838 72.2687 70.8838C71.2889 70.8838 70.4946 71.6829 70.4946 72.6687C70.4946 73.6545 71.2889 74.4536 72.2687 74.4536Z" fill="#0B0B13"></path>
    <path d="M72.2687 25.4107C73.2485 25.4107 74.0428 24.6115 74.0428 23.6258C74.0428 22.64 73.2485 21.8408 72.2687 21.8408C71.2889 21.8408 70.4946 22.64 70.4946 23.6258C70.4946 24.6115 71.2889 25.4107 72.2687 25.4107Z" fill="#0B0B13"></path>
    <path d="M23.5234 64.5003C24.9931 64.5003 26.1845 63.3016 26.1845 61.8229C26.1845 60.3442 24.9931 59.1455 23.5234 59.1455C22.0537 59.1455 20.8623 60.3442 20.8623 61.8229C20.8623 63.3016 22.0537 64.5003 23.5234 64.5003Z" fill="#0B0B13"></path>
    <path d="M23.5234 37.1487C24.9931 37.1487 26.1845 35.95 26.1845 34.4713C26.1845 32.9927 24.9931 31.7939 23.5234 31.7939C22.0537 31.7939 20.8623 32.9927 20.8623 34.4713C20.8623 35.95 22.0537 37.1487 23.5234 37.1487Z" fill="#0B0B13"></path>
    <path d="M72.2676 64.5003C73.7372 64.5003 74.9287 63.3016 74.9287 61.8229C74.9287 60.3442 73.7372 59.1455 72.2676 59.1455C70.7979 59.1455 69.6064 60.3442 69.6064 61.8229C69.6064 63.3016 70.7979 64.5003 72.2676 64.5003Z" fill="#0B0B13"></path>
    <path d="M72.2676 37.1487C73.7372 37.1487 74.9287 35.95 74.9287 34.4713C74.9287 32.9927 73.7372 31.7939 72.2676 31.7939C70.7979 31.7939 69.6064 32.9927 69.6064 34.4713C69.6064 35.95 70.7979 37.1487 72.2676 37.1487Z" fill="#0B0B13"></path>
    <path d="M34.3037 75.346C35.7734 75.346 36.9648 74.1473 36.9648 72.6686C36.9648 71.1899 35.7734 69.9912 34.3037 69.9912C32.834 69.9912 31.6426 71.1899 31.6426 72.6686C31.6426 74.1473 32.834 75.346 34.3037 75.346Z" fill="#0B0B13"></path>
    <path d="M34.3037 26.303C35.7734 26.303 36.9648 25.1043 36.9648 23.6256C36.9648 22.147 35.7734 20.9482 34.3037 20.9482C32.834 20.9482 31.6426 22.147 31.6426 23.6256C31.6426 25.1043 32.834 26.303 34.3037 26.303Z" fill="#0B0B13"></path>
    <path d="M61.4892 75.346C62.9589 75.346 64.1503 74.1473 64.1503 72.6686C64.1503 71.1899 62.9589 69.9912 61.4892 69.9912C60.0195 69.9912 58.8281 71.1899 58.8281 72.6686C58.8281 74.1473 60.0195 75.346 61.4892 75.346Z" fill="#0B0B13"></path>
    <path d="M61.4892 26.303C62.9589 26.303 64.1503 25.1043 64.1503 23.6256C64.1503 22.147 62.9589 20.9482 61.4892 20.9482C60.0195 20.9482 58.8281 22.147 58.8281 23.6256C58.8281 25.1043 60.0195 26.303 61.4892 26.303Z" fill="#0B0B13"></path>
    <path d="M61.4892 37.1487C62.9589 37.1487 64.1503 35.95 64.1503 34.4713C64.1503 32.9927 62.9589 31.7939 61.4892 31.7939C60.0195 31.7939 58.8281 32.9927 58.8281 34.4713C58.8281 35.95 60.0195 37.1487 61.4892 37.1487Z" fill="#0B0B13"></path>
    <path d="M61.4892 64.5003C62.9589 64.5003 64.1503 63.3016 64.1503 61.8229C64.1503 60.3442 62.9589 59.1455 61.4892 59.1455C60.0195 59.1455 58.8281 60.3442 58.8281 61.8229C58.8281 63.3016 60.0195 64.5003 61.4892 64.5003Z" fill="#0B0B13"></path>
    <path d="M34.3037 64.5003C35.7734 64.5003 36.9648 63.3016 36.9648 61.8229C36.9648 60.3442 35.7734 59.1455 34.3037 59.1455C32.834 59.1455 31.6426 60.3442 31.6426 61.8229C31.6426 63.3016 32.834 64.5003 34.3037 64.5003Z" fill="#0B0B13"></path>
    <path d="M72.2676 50.8245C73.7372 50.8245 74.9287 49.6258 74.9287 48.1471C74.9287 46.6684 73.7372 45.4697 72.2676 45.4697C70.7979 45.4697 69.6064 46.6684 69.6064 48.1471C69.6064 49.6258 70.7979 50.8245 72.2676 50.8245Z" fill="#0B0B13"></path>
    <path d="M47.8955 75.346C49.3652 75.346 50.5566 74.1473 50.5566 72.6686C50.5566 71.1899 49.3652 69.9912 47.8955 69.9912C46.4258 69.9912 45.2344 71.1899 45.2344 72.6686C45.2344 74.1473 46.4258 75.346 47.8955 75.346Z" fill="#0B0B13"></path>
    <path d="M47.8955 26.303C49.3652 26.303 50.5566 25.1043 50.5566 23.6256C50.5566 22.147 49.3652 20.9482 47.8955 20.9482C46.4258 20.9482 45.2344 22.147 45.2344 23.6256C45.2344 25.1043 46.4258 26.303 47.8955 26.303Z" fill="#0B0B13"></path>
</svg>
